<svg xmlns="http://www.w3.org/2000/svg" width="210" height="40"><defs><style>.cls-1{fill:#fff;}</style></defs><g id="Layer_2" data-name="Layer 2"><g id="Layer_1-2" data-name="Layer 1"><path class="cls-1" d="M43.09,16.23v.16a10.76,10.76,0,0,1-2.84,7.77,9.14,9.14,0,0,1-6.89,2.53,8.83,8.83,0,0,1-6.74-2.48,8.29,8.29,0,0,1-2.53-6.14,9.42,9.42,0,0,1,2.63-6.61,10.27,10.27,0,0,1,7.59-2.87c3.67,0,6.41,1.32,8.24,4.36l-5.86,2.3a2.47,2.47,0,0,0-2.3-1.44,3.81,3.81,0,0,0-2.63,1,4.86,4.86,0,0,0-1.42,3.54,3.67,3.67,0,0,0,1,2.63,3.12,3.12,0,0,0,2.43.93A2.7,2.7,0,0,0,36.51,20H33.15l.52-3.77ZM58.15,9l-.54,4.49H52.52l-.23,1.89h4.65l-.52,4.26H51.77l-.23,2h5.27l-.57,4.62H44.72L46.84,9Zm14.93.38-.52,6.12a5.31,5.31,0,0,0-3.43-1.34A3.86,3.86,0,0,0,65.33,18a3.17,3.17,0,0,0,3.33,3.1A4.63,4.63,0,0,0,72,19.64l-.75,6.28a11.19,11.19,0,0,1-3.92.77c-4.78,0-8.27-3.61-8.27-8.55a9.27,9.27,0,0,1,9.51-9.53,13.08,13.08,0,0,1,4.46.81M82.3,9l-.57,4.47a27.76,27.76,0,0,1-.55,3l.19.05a11.14,11.14,0,0,1,1.08-2.19l.59-1L85.78,9h7.29l-6.72,8.73,4.39,8.5H84.16l-2.2-5a13.93,13.93,0,0,1-.88-2.53l-.18,0v.51a16.49,16.49,0,0,1-.13,2l-.59,5H73.93L76.05,9Zm29.57,8.47a9.13,9.13,0,0,1-9.43,9.19c-5.45,0-9.63-3.82-9.63-8.81a9.28,9.28,0,0,1,9.5-9.27A10.45,10.45,0,0,1,109,11a8.08,8.08,0,0,1,2.87,6.51m-6.3.1a3.13,3.13,0,0,0-3-3.28,3.53,3.53,0,0,0-3.41,3.62,3.1,3.1,0,0,0,3,3.32,3.44,3.44,0,0,0,3.4-3.66M120,23.67c0,1.63-1.52,2.92-3.49,2.92s-3.3-1.19-3.3-2.74a3.32,3.32,0,0,1,3.46-3A3.1,3.1,0,0,1,120,23.68M17.77,38.58A21.82,21.82,0,0,1,13,30.3c-.41-1.35-.63-2.77.25-3.95s2.21-1.17,3.45-1.39c.16.26.07.44-.08.66a.74.74,0,0,0,.14,1,.6.6,0,0,0,.84-.16.53.53,0,0,0,.08-.17c.08-.26-.07-.53-.12-.76s-.21-.51,0-.65c.66.27.74,1.28,1.44,1.47a.66.66,0,0,0,.76-.46.67.67,0,0,0-.34-.81c-.42-.19-.83-.24-1.12-.64a14.2,14.2,0,0,1,1.78.06.56.56,0,0,0,.29-.88,1.1,1.1,0,0,0-1-.17,5,5,0,0,1-1.2.27c.33-.29,1-.6,1.29-.9s.45-1,0-1.13c-1-.22-1.05,1.45-1.93,1.68-.05-.71.33-1.18,0-1.69-.23-.35-.85-.54-1.08-.14-.4.7.52,1.36.24,2.09-1-.32-1.46-1.65-2.54-1.59-.85.05-1.21,1.09-2,1.3a16.59,16.59,0,0,0,0-7.22c-.07-.32.31-.51.62-.47s.56.27.89.29a1.65,1.65,0,0,0,1.45-1.05,3.63,3.63,0,0,1,1.14-1.51c.52.28.5.79.72,1.24s.76.53,1,.1c.35-.66-.81-1-.72-1.66a1.75,1.75,0,0,1,1.12.34c.35.17.87.3,1.08-.09s-.32-.91-.81-.93-1,.21-1.51-.08c.53-.59,1.71-.17,2-1,.13-.36-.29-.65-.66-.65-.58,0-1,.81-1.51,1.09.09-.53.77-1.29.62-1.77a.58.58,0,0,0-.85-.42c-.39.24-.31.73-.2,1.12s.09,1-.41,1c-.43-.29-.18-.87-.63-1.19a.55.55,0,0,0-.82.59c.12.49.71.64,1,1.07a3.62,3.62,0,0,1-1.65,1.11,1.16,1.16,0,0,1-1.47-.95c-.06-1.28.14-2.55,1.29-3.21.46-.27,1-.13,1.45-.41A2.13,2.13,0,0,0,16.13,7c.06-.71-.08-1.4,0-2.09.11-1.34.8-2.65.19-3.93A1.86,1.86,0,0,0,13.94.13c-.74.27-1.18,1-1.79,1.46S10.67,2.42,10,3a2,2,0,0,0-.86,2.21,2.87,2.87,0,0,1-.61,3.05,2.82,2.82,0,0,1-3.06.57,1.3,1.3,0,0,1-.84-.85A.74.74,0,0,1,5.09,7h0c.32.12.29.33.48.59a.55.55,0,0,0,.8.22c.38-.26.16-.7-.17-.88s-.64-.15-.91-.41c.23-.59,1.1-.23,1.48-.66s-.16-1-.65-.88-.7.82-1.25.92a3.08,3.08,0,0,1,.61-1.11.68.68,0,0,0,.14-.44c-.08-.53-.81-.56-1.11-.17s-.06,1-.3,1.46C4,5.39,4,5,3.86,4.66s-.33-.74-.68-.82a.45.45,0,0,0-.53.64c.19.44,1.26.86,1.24,1.47-.49.17-.7-.47-1.13-.63A.54.54,0,0,0,2.08,6,.75.75,0,0,0,3,6.47a.55.55,0,0,1,.58.44,3.16,3.16,0,0,1,0,.81,3.37,3.37,0,0,0,2,3.29,1.08,1.08,0,0,1,.57,1.14,4.06,4.06,0,0,1-.48,1.28c-1.62,3.72-.87,7.65.51,11.33a2.76,2.76,0,0,0-3,.42,2.74,2.74,0,0,0-.73,2.65c.05.28.07.23.1.46-.32.12-.28-.21-.43-.46a.6.6,0,0,0-1-.06c-.5.95.56.78.9,1.41-.43.28-.92-.09-1.39-.05a.61.61,0,0,0-.55.66H0a.64.64,0,0,0,.67.55,2.15,2.15,0,0,0,.66-.28c.22-.08.59-.32.77-.09-.42.43-1.23,1-.4,1.5.59.33.7-.91.87-1.28.51.14.32,1,.45,1.4A.7.7,0,0,0,3.9,32L4,32a.71.71,0,0,0,.21-1c-.14-.19-.38-.28-.55-.43s-.32-.28-.19-.49c.51,0,.72.49,1.21.45a.56.56,0,0,0,.39-1c-.25-.26-.48-.21-.81-.18s-.61,0-.68-.4a.66.66,0,0,1,.23-.58,2.68,2.68,0,0,1,1.9-1.15,3.15,3.15,0,0,1,2.44,1.7c2.51,3.63,4.4,7.79,8.23,10.22a1.46,1.46,0,0,0,1,.28c.36-.08.61-.54.36-.82"/></g></g></svg>